<svg xmlns="http://www.w3.org/2000/svg" viewBox="0 0 477 150"><path fill="#FFF" d="M143.4 15.6c-8.1-3.7-17.4-6.7-27-8.5-10.2-2.1-21.4-2.9-28-3-29.7-.6-52 5.3-66.6 17.6-8.4 7-18.3 19.4-18.2 38.1v.4c0 17.2 8.1 31.2 24.2 41.9 10.3 6.8 22.4 11 27.6 12.9h.1c11.8 4 21.6 7.8 25.5 9.9.7.4 1.2.7 1.8 1-.2.3-.3.6-.5.8l-.1.1c-.8 1.7-3.4 7.6-.9 13 1.8 3.9 5.7 6.3 9.8 6.3h.7c2.7-.1 5.2-1.5 6.9-3.7 2.1-2.8 2.9-6.8 1.9-10.7-.6-2.3-1.5-4.4-2.8-6.3 2.4-1.6 6.1-3.9 11.7-6.5 3.5-1.6 8.5-3.5 13.7-5.4 9.8-3.7 20.9-7.8 28.2-12.4 11.2-7 24.1-18 24.1-40.7-.1-19.7-11.2-35.2-32.1-44.8z"/><path fill="#009ABF" d="M141.5 19.7c-8-3.7-17.1-6.5-26-8.2-9.4-1.9-20.3-2.8-27.3-2.9-32.8-.7-52.1 6.8-63.6 16.5C7.2 39.8 8 57 8 60.2c0 18.3 10.1 30.1 22.1 38.1 9.9 6.5 21.8 10.7 26.7 12.4 10.5 3.6 21.4 7.7 26.2 10.2 3.9 2.1 5.7 4.2 5.7 4.2-1.3 1.5-2 2.7-2.6 3.8-1 2-2.3 6-.9 9.1.9 1.9 3 3.9 6.2 3.7 3.7-.2 5.7-4.6 4.7-8.9-.7-2.8-2.1-5.5-4.8-8.1 0 0 4.3-4.4 16.2-9.9 10.3-4.7 30.8-10.8 41.4-17.5 12.1-7.6 21.9-17.9 21.9-36.9.1-19-11.5-32.5-29.3-40.7zm-49 113.2c0 3.1-1.6 3.8-2.5 3.8s-2.1-.8-2.1-3.7c0-3.2 2.2-6.3 2.2-6.3s2.4 2.7 2.4 6.2zM155.2 88c-5.6 5.7-14.2 11.5-27.3 16.4-24.5 9.2-33.3 14.5-37.7 19l-.3.3-.3-.2c-1.7-1.3-3.7-2.6-6.2-4-7.7-4.5-24.5-10.5-34.1-14.7-5.6-2.4-24.1-10.3-31.8-26.8-3.9-8.5-4.2-17-3.2-23.3.6-3.9 3.1-18.5 21.1-28.5 11.2-6.2 28.2-10.9 53.1-9.9 10.1.4 26.6 1.5 43.6 7.3 17.3 6 33.7 17.1 33.7 37.7.1 4.7.6 15.3-10.6 26.7z"/><g fill="currentColor"><g fill="#004877"><path d="M56.4 95.6v2.1h-1.2v-6h4.5v1.1h-3.4v1.7h2.9v1.1h-2.8zM62.5 91.8h1.4l2.3 6H65l-.4-1.2h-2.7l-.5 1.2h-1.2l2.3-6zm-.3 3.8h2.1l-1-2.6-1.1 2.6zM73.1 93.7l-2 2.4h-.2l-2-2.4v4h-1.2v-6h1.1l2.2 2.7 2.2-2.7h1.1v6h-1.2v-4zM78.2 91.8H77v6h1.2v-6zM80.8 97.7v-6H82v4.9h3.1v1.1h-4.3zM86.9 95.4l-2.3-3.5v-.1H86l1.6 2.5 1.6-2.5h1.4v.1l-2.3 3.5v2.4h-1.2v-2.4h-.2zM94.4 91.8H97c1.8 0 3.1 1 3.1 3 0 1.9-1.3 3-3.1 3h-2.6v-6zm1.2 1v3.8h1.3c1.1 0 1.9-.7 1.9-1.9 0-1.3-.8-1.9-1.9-1.9h-1.3zM103.1 91.8h1.4l2.3 6h-1.2l-.5-1.2h-2.7l-.4 1.1h-1.3l2.4-5.9zm-.3 3.8h2.1l-1-2.6-1.1 2.6zM109.5 91.8h-1.2v6h1.2v-6zM112 91.8h2.6c1.2 0 2.4.5 2.4 1.9 0 1-.7 1.7-1.7 1.9.6.5 1.1 1.2 1.8 1.2.2 0 .5-.1.7-.1l.1 1c-.2.1-.6.2-1 .2-1.3 0-2.3-1.7-3.1-2.2h-.6v2.1H112v-6zm1.3 1v1.8h1.5c.6 0 1-.3 1-.9 0-.6-.4-.9-1-.9h-1.5zM120.9 95.4l-2.3-3.5v-.1h1.4l1.6 2.5 1.6-2.5h1.4v.1l-2.3 3.5v2.4h-1.2v-2.4h-.2zM67.8 104c-.7-.2-1-.6-1-1.2 0-.8.6-1.4 1.8-1.4.7 0 1.3.2 1.6.4l-.3.8c-.3-.2-.9-.4-1.4-.4-.6 0-.8.2-.8.4 0 .3.2.3.5.4l.8.2c.8.2 1.2.6 1.2 1.3 0 .8-.7 1.4-1.8 1.4-.7 0-1.3-.2-1.6-.4l.2-.9c.3.2.9.4 1.4.4s.8-.2.8-.5-.2-.4-.7-.5h-.7zM72.9 101.5H72v4.5h.9v-4.5zM75.9 103v3H75v-4.5h.8l2.5 3v-3h.9v4.5h-.8l-2.5-3zM85.1 105.2c-.4.4-1.1.8-1.9.8-1.3 0-2.3-.9-2.3-2.3s1-2.3 2.3-2.3c1.2 0 1.8.7 1.9 1.7l-.9.2c0-.6-.3-1-1-1-.8 0-1.3.5-1.3 1.5 0 .9.6 1.5 1.4 1.5.6 0 1.1-.3 1.4-.6l.4.5zM86.7 105.9v-4.5h3.6v.8h-2.7v1h2.2v.8h-2.2v1.1h2.7v.8h-3.6zM95.6 101.5h.7v4.5h-.9v-3.5l-1.4.7-.3-.7 1.9-1zM98.5 104.9c.2.1.7.3 1.2.3.8 0 1.2-.5 1.2-1.2-.2.2-.6.4-1.2.4-1.1 0-1.7-.6-1.7-1.5 0-1 .8-1.6 1.8-1.6 1.3 0 2.1.9 2.1 2.3s-.7 2.3-2.1 2.3c-.7 0-1.3-.2-1.6-.4l.3-.6zm2.4-1.6c-.1-.6-.5-1-1.1-1-.5 0-.9.3-.9.8s.3.7.9.7c.5-.1.9-.3 1.1-.5zM105 101.5h.7v4.5h-.9v-3.5l-1.4.7-.4-.7 2-1zM109.4 101.4c1.3 0 2 .9 2 2.3s-.7 2.3-2 2.3-2-.9-2-2.3.7-2.3 2-2.3zm0 3.7c.8 0 1.1-.7 1.1-1.5s-.3-1.5-1.1-1.5-1.1.7-1.1 1.5.3 1.5 1.1 1.5zM50.7 57.1c3.8 0 9.5-4.6 9.5-10.7 0-9.8-9.3-13.3-16.9-13.3-5.9 0-11.7 2.4-15 6.5-3.3 4.2-4 9.1-1.3 10 1.6.4 3.1-1.1 3.8-2.9.9-2.3-.1-3.6 1.5-6 1.6-2.3 5-4.9 10.7-4.9 4.8 0 10 2.5 10 10.4 0 3.4-1.6 9.8-7.8 9.8H43V41.9c0-2.1.9-3 .9-3-3.5-.7-5.9.1-7.3 1.5-1.6 1.6-2.1 3.8-2.1 5.3v31.5c0 2.6-.7 3.9-.6 4 .1 0 4.4 3 12.3 3 6.7 0 17-3.5 17-14.5.1-11.6-12.5-12.6-12.5-12.6zM47.4 81C43 81 43 77.1 43 74.8V59.3h2.4c4.2 0 9.6 2.4 9.6 11 0 8.1-4.4 10.7-7.6 10.7zM146.5 78.9c-1.1.1-2.3-.5-2.3-3.7 0-1.6.1-10 .1-16.9 0-7-6-8.6-10.8-8.6-4.7 0-7.5 2.1-8.5 3-3.3 2.6-3.8 6.7-1.5 7.5 1.5.4 2.8-.8 3.5-2.5.3-.8.2-1.6 1.2-3s2.6-2.2 4.4-2.2c2.7 0 4.5 2 4.5 4.2 0 1-.2 3-3 4.6-2.8 1.6-4.4 2.3-7.1 4-4.1 2.6-5.6 5.7-5.8 9.5 0 .8.1 1.9.4 3-.7.6-1.4 1.2-2.3 1.2-1.6 0-2.6-1.3-2.6-5V43.3c0-5-3-6.2-5.3-6.3-2.3-.1-3.1.5-3.1.5s.7.2.7 3.5v32.4c0 .5 0 1.6.1 2.8-.5.8-2 2.8-3.6 2.8-1.9 0-3-1.6-3-5.2V43.4c0-5-3-6.2-5.3-6.3-2.4-.1-3.2.5-3.2.5s.7.2.7 3.5v32.4c0 .5 0 1.5.1 2.6-.5.8-2.1 2.9-4 2.9-1.6 0-2.7-1.6-2.7-5.2V57.1c0-5-2.9-6.2-5.2-6.3-2.3-.1-3.1.3-3.1.3s.7.2.7 3.5v18.7c0 .7 0 2.3.3 4-.5.7-1.4 1.5-3.1 1.6-2.9.1-4.1-3-4.1-8 .1-3.4.8-12.4.1-15.4-.6-2.6-2.5-4.6-5.2-4.5-2.2.1-2.9.9-2.9.9s.9-.1 1 4.4c.1 4.8-.7 14-.2 18.3.6 4.2 2 9.2 8.4 9.2 3.4 0 5.6-2.3 6.7-3.8.9 2.1 2.6 3.9 5.7 3.9 4.5 0 7.3-3.9 8-5 .7 2.6 2.4 5 6.1 5 4.7 0 7.4-4.1 8-5.1.7 2.6 2.4 5.1 6.2 5.1 3.4 0 5.7-2.1 7-3.7 1.2 1.9 3.4 3.4 6.5 3.4 3.7 0 5.8-1.7 6.5-2.3.7-.6 1.4-1.3 1.4-1.2 0 0 .6 1 1.1 1.5.5.5 1.9 1.9 4.6 1.9 4.1 0 6.5-4.9 5.9-5.5-.1-.2-1.1.8-2 .9zm-9.6-5.8c-.1 3.6-2.3 5.7-4.9 5.7s-4.1-2.5-3.9-5.1c.2-2.8 1.2-4.8 4.5-7.6 2.7-2.3 4.4-3.3 4.4-3.3s-.1 6.5-.1 10.3zM150.7 67c-1.9.4-2.2 3.1-1.5 4.6.4 1 1 2.2.3 3.7-.3.7-.9 1.3-.4 1.6.5.4 1.8-.6 2.5-1.4.6-.7 2.2-2.7 2.1-5-.2-2.2-1.6-3.8-3-3.5z"/></g><path d="M166.9 25.4v-1c0-.3.1-.3.4-.3.2 0 .7.1.7.6 0 .3-.1.5-.3.6-.1.1-.3.1-.5.1h-.3zm2.5 1.7c-.1 0-.2-.1-.4-.3-.4-.5-.6-.8-.9-1.3.4-.2.7-.5.7-.9 0-.8-.7-1-1.3-1h-1.9v.4c.4 0 .5 0 .5.5v1.9c0 .5 0 .5-.5.5v.4h1.8v-.4c-.5 0-.5 0-.5-.5v-.7h.1c.1 0 .3 0 .4.2.1.2.3.6.5.9.3.4.7.6 1.3.6l.2-.3zm-2.1-4.5c1.6 0 2.8 1.3 2.8 2.9 0 1.7-1.2 2.9-2.8 2.9-1.6 0-2.7-1.2-2.7-2.9-.1-1.6 1.1-2.9 2.7-2.9zm0-.6c-2 0-3.5 1.6-3.5 3.5 0 2 1.5 3.5 3.5 3.5s3.6-1.7 3.6-3.5c0-1.9-1.5-3.5-3.6-3.5zM183.3 63.8V44h12.1v15.9c0 2.6 1.5 4.1 3.3 4.1s3.5-1.5 3.5-4.1V44h12.1v30.1h-12.1v-4c-1.9 2.5-4.8 4.8-8.9 4.8-6.1-.1-10-4.3-10-11.1zM216.1 44h12.1v4.2c1.9-2.5 4.8-4.9 8.9-4.9 6.2 0 10 4.2 10 11v19.9H235v-16c0-2.6-1.5-4.1-3.3-4.1s-3.5 1.5-3.5 4.1v15.9h-12.1V44zM251.4 53.6H248V44h3.4c.1-3.3.8-5.8 2.6-7.7 2-2.1 4.5-2.9 8.6-2.9 3.6 0 5.8.3 7.4.8v7.9c-1.2-.3-2.4-.4-3.9-.4-1.9 0-2.8.8-2.8 2.4v.2h6.7v9.4h-6.5v20.5h-12.1V53.6zM287 62.9v-1.3c-.7-.3-1.8-.5-2.8-.5-2.4 0-3.7 1.5-3.7 3.4v.1c0 1.8 1.2 2.9 2.8 2.9 2.1.1 3.7-1.7 3.7-4.6zm-18.1 2.6c0-6.1 4.3-9.5 11.1-9.5 2.5 0 5.6.6 6.9 1.1v-.5c0-2.8-1.7-4.4-5.4-4.4-3 0-5.5.7-8.1 1.7l-2.1-8.4c3.4-1.3 7.2-2.2 12.3-2.2 5.9 0 9.8 1.3 12.4 3.9 2.2 2.3 3.1 5.2 3.1 9.6v17.3H287v-3c-2 2.3-4.8 3.8-8.4 3.8-5.8-.1-9.7-3.4-9.7-9.4zM300.5 33.8h12.1v19.5L319 44h13.2l-9.1 12.3 9.3 18h-13l-4.2-8.3-2.4 3.2v5h-12.1l-.2-40.4z"/><path d="M347.5 56.4c-.3-2.9-1.9-4.5-4.1-4.5-2 0-3.5 1.8-3.9 4.5h8zm-19.1 2.8c0-9.1 6.3-16 15-16 10.4 0 15.2 7.5 15.2 16.7 0 .7 0 1.4-.1 2.1h-18.8c.9 2.7 2.9 4 5.5 4 2.2 0 4-1.1 5.9-3.1l6.5 5.4c-2.9 3.9-7 6.6-13.3 6.6-9.5-.1-15.9-6.3-15.9-15.7zM376.8 62.9v-1.3c-.7-.3-1.8-.5-2.8-.5-2.4 0-3.7 1.5-3.7 3.4v.1c0 1.8 1.2 2.9 2.8 2.9 2.1.1 3.7-1.7 3.7-4.6zm-18.1 2.6c0-6.1 4.3-9.5 11.1-9.5 2.5 0 5.6.6 6.9 1.1v-.5c0-2.8-1.7-4.4-5.4-4.4-3 0-5.5.7-8.1 1.7l-2.1-8.4c3.4-1.3 7.2-2.2 12.3-2.2 5.9 0 9.8 1.3 12.4 3.9 2.2 2.3 3.1 5.2 3.1 9.6v17.3h-12.1v-3c-2 2.3-4.8 3.8-8.4 3.8-5.7-.1-9.7-3.4-9.7-9.4zM412.3 59c0-3.1-2.1-5.5-4.9-5.5-2.8 0-4.9 2.4-4.9 5.4v.1c0 3 2.1 5.4 4.9 5.4 2.8.1 4.9-2.3 4.9-5.4zm-9.5 11.7v3.4h-12.2V33.8h12.1v13.9c2-2.2 4.2-4.4 8.7-4.4 7.1 0 12.6 6.4 12.6 15.6v.1c0 9.6-5.6 16-12.5 16-4.3-.2-6.9-2.2-8.7-4.3zM437.6 33.8h-12.1v40.3h12.1V33.8zM458.3 56.4c-.3-2.9-1.9-4.5-4.1-4.5-2 0-3.5 1.8-3.9 4.5h8zM439 59.2c0-9.1 6.3-16 15-16 10.4 0 15.2 7.5 15.2 16.7 0 .7 0 1.4-.1 2.1h-18.8c.9 2.7 2.9 4 5.5 4 2.2 0 4-1.1 5.9-3.1l6.5 5.4c-2.9 3.9-7 6.6-13.3 6.6-9.4-.1-15.9-6.3-15.9-15.7zM470.1 47.2v-.9c0-.2.1-.3.3-.3.2 0 .6.1.6.6 0 .2-.1.4-.3.5-.1.1-.3.1-.4.1h-.2zm2.1 1.5c-.1 0-.2-.1-.3-.2-.4-.4-.6-.7-.8-1.1.4-.1.6-.4.6-.8 0-.7-.6-.8-1.2-.8h-1.6v.3c.4 0 .4 0 .4.5v1.6c0 .4 0 .4-.5.5v.4h1.6v-.4c-.4 0-.5 0-.5-.5v-.6h.1c.1 0 .2 0 .3.2.1.2.2.5.4.8.3.4.6.5 1.2.5l.3-.4zm-1.8-3.8c1.4 0 2.4 1.1 2.4 2.5s-1 2.5-2.4 2.5-2.4-1.1-2.4-2.5 1-2.5 2.4-2.5zm0-.5c-1.8 0-3.1 1.4-3.1 3.1 0 1.8 1.3 3.1 3.1 3.1s3.1-1.5 3.1-3.1c.1-1.8-1.3-3.1-3.1-3.1zM209.2 105.6c-.7 0-1.3-.1-1.9-.4-.6-.3-1.1-.6-1.5-1s-.8-.9-1-1.5c-.2-.6-.4-1.2-.4-1.8 0-.6.1-1.3.4-1.9.2-.6.6-1.1 1-1.5s.9-.8 1.5-1c.6-.3 1.2-.4 1.9-.4.9 0 1.6.1 2.2.4.6.3 1.1.7 1.5 1.1l-1.3 1.4c-.3-.3-.7-.6-1-.8-.4-.2-.8-.3-1.3-.3-.4 0-.7.1-1.1.2-.3.2-.6.4-.8.6-.2.3-.4.6-.5.9-.1.4-.2.7-.2 1.1 0 .4.1.8.2 1.1.1.4.3.7.6.9.3.2.5.5.9.6.3.2.7.2 1.1.2.5 0 .9-.1 1.3-.3.4-.2.7-.5 1.1-.8l1.3 1.3c-.5.5-1 .9-1.5 1.2-.8.5-1.6.7-2.5.7zM214.2 96.3h2.1v2.1c.3-.7.7-1.3 1.2-1.7.5-.4 1.2-.6 2-.6v2.2h-.1c-.5 0-.9.1-1.3.2s-.7.4-1 .7c-.3.3-.5.7-.6 1.1-.2.5-.2 1-.2 1.6v3.5h-2.1v-9.1zM226.4 105.4v-1.1c-.3.4-.7.7-1.2.9-.5.3-1.1.4-1.8.4-.4 0-.9-.1-1.3-.2s-.7-.3-1-.5c-.3-.2-.5-.5-.7-.9-.2-.4-.3-.8-.3-1.2 0-.5.1-1 .3-1.3.2-.4.4-.7.8-.9.3-.2.7-.4 1.2-.6.5-.1 1-.2 1.5-.2.6 0 1 0 1.4.1.4.1.8.2 1.1.3v-.2c0-.6-.2-1.1-.6-1.5-.4-.3-.9-.5-1.7-.5-.5 0-1 .1-1.4.2-.4.1-.8.2-1.2.4l-.6-1.7c.5-.2 1-.4 1.6-.6.5-.1 1.2-.2 1.9-.2 1.4 0 2.4.3 3 1 .7.7 1 1.6 1 2.9v5.4h-2zm.1-3.8l-.9-.3c-.4-.1-.8-.1-1.2-.1-.7 0-1.2.1-1.5.4-.4.3-.6.6-.6 1s.2.8.5 1c.3.2.8.3 1.3.3.3 0 .7 0 1-.1.3-.1.6-.2.8-.4.2-.2.4-.4.5-.6.1-.2.2-.5.2-.8l-.1-.4zM230.8 98.1h-1.2v-1.8h1.2v-.7c0-1 .3-1.8.8-2.3.5-.5 1.2-.7 2.1-.7.4 0 .7 0 1 .1.3 0 .5.1.7.2v1.8c-.2-.1-.4-.1-.6-.2-.2 0-.4-.1-.6-.1-.8 0-1.2.5-1.2 1.4v.5h2.4v1.8H233v7.4h-2.1l-.1-7.4z"/><path d="M239.3 105.5c-.4 0-.7 0-1.1-.1-.3-.1-.6-.2-.9-.5-.2-.2-.4-.5-.6-.8-.1-.3-.2-.8-.2-1.3V98h-1.2v-1.8h1.2v-2.5h2.1v2.5h2.5V98h-2.5v4.5c0 .4.1.7.3.9.2.2.5.3.8.3.5 0 .9-.1 1.3-.3v1.6c-.3.2-.6.3-.9.3-.1.2-.5.2-.8.2zM246.8 105.6c-.7 0-1.3-.1-1.9-.3-.6-.2-1.1-.6-1.5-1-.4-.4-.8-.9-1-1.5-.2-.6-.4-1.2-.4-1.9s.1-1.3.3-1.9c.2-.6.5-1.1.9-1.5.4-.4.9-.8 1.4-1 .5-.2 1.1-.4 1.8-.4s1.4.1 1.9.4c.6.3 1 .6 1.4 1.1.4.5.6 1 .8 1.6.2.6.3 1.2.3 1.9v.6H244c.1.8.4 1.3.9 1.7.5.4 1.1.6 1.7.6.5 0 1-.1 1.4-.3.4-.2.8-.5 1.1-.8l1.2 1.1c-.4.5-1 .9-1.6 1.3-.3.1-1.1.3-1.9.3zm2.1-5.4c0-.3-.1-.7-.2-.9-.1-.3-.3-.6-.5-.8-.2-.2-.4-.4-.7-.5s-.6-.2-.9-.2c-.6 0-1.2.2-1.6.7-.4.4-.7 1-.8 1.7h4.7zM256.2 105.5c-.5 0-1.1-.1-1.6-.3-.5-.2-1-.5-1.4-.9s-.7-.9-1-1.5c-.2-.6-.4-1.3-.4-2 0-.8.1-1.4.4-2 .2-.6.6-1.1.9-1.5.3-.4.8-.7 1.4-.9.5-.2 1-.3 1.6-.3.8 0 1.4.2 1.9.5s.9.7 1.2 1.1v-4.9h2.1v12.7h-2V104c-.3.5-.8.9-1.3 1.2-.5.2-1.1.3-1.8.3zm.5-1.7c.3 0 .7-.1 1-.2.3-.1.6-.3.8-.6l.6-.9c.1-.4.2-.8.2-1.2 0-.4-.1-.8-.2-1.2s-.3-.7-.6-.9c-.2-.3-.5-.5-.8-.6-.3-.1-.7-.2-1-.2-.4 0-.7.1-1 .2-.3.1-.6.3-.8.6l-.6.9c-.1.4-.2.8-.2 1.2 0 .4.1.8.2 1.2.1.4.3.7.6.9.2.3.5.5.8.6.3.1.6.2 1 .2zM272.3 105.6c-.7 0-1.3-.1-1.9-.4-.6-.2-1.1-.6-1.5-1-.4-.4-.8-.9-1-1.5-.2-.6-.4-1.2-.4-1.8 0-.7.1-1.3.4-1.9.2-.6.6-1.1 1-1.5.4-.4 1-.8 1.5-1 .6-.3 1.2-.4 2-.4.7 0 1.4.1 2 .4.6.3 1.1.6 1.5 1s.8.9 1 1.5.4 1.2.4 1.9c0 .6-.1 1.3-.4 1.8-.3.6-.6 1.1-1 1.5s-1 .8-1.6 1c-.6.2-1.2.4-2 .4zm.1-1.8c.4 0 .8-.1 1.2-.2l.9-.6.6-.9c.1-.4.2-.7.2-1.1 0-.4-.1-.8-.2-1.1-.1-.4-.3-.7-.6-.9-.2-.3-.5-.5-.9-.6-.3-.2-.7-.2-1.1-.2-.4 0-.8.1-1.1.2l-.9.6-.6.9c-.1.4-.2.7-.2 1.1 0 .4.1.8.2 1.1.1.4.3.7.6.9.2.3.5.5.9.6.2.2.6.2 1 .2zM277.8 96.3h2.3l2.5 6.8 2.5-6.8h2.2l-3.8 9.3h-1.9l-3.8-9.3zM292.6 105.6c-.7 0-1.3-.1-1.9-.3-.6-.2-1.1-.6-1.5-1-.4-.4-.8-.9-1-1.5-.2-.6-.4-1.2-.4-1.9s.1-1.3.3-1.9c.2-.6.5-1.1.9-1.5s.9-.8 1.4-1c.5-.2 1.1-.4 1.8-.4s1.4.1 1.9.4c.6.3 1 .6 1.4 1.1.4.5.6 1 .8 1.6.2.6.3 1.2.3 1.9v.6h-6.8c.1.8.4 1.3.9 1.7.5.4 1.1.6 1.7.6.5 0 1-.1 1.4-.3s.8-.5 1.1-.8l1.2 1.1c-.4.5-1 .9-1.6 1.3-.4.1-1.1.3-1.9.3zm2.1-5.4c0-.3-.1-.7-.2-.9-.1-.3-.3-.6-.5-.8-.2-.2-.4-.4-.7-.5-.3-.1-.6-.2-.9-.2-.6 0-1.2.2-1.6.7-.4.4-.7 1-.8 1.7h4.7zM298.2 96.3h2.1v2.1c.3-.7.7-1.3 1.2-1.7.5-.4 1.2-.6 2-.6v2.2h-.1c-.5 0-.9.1-1.3.2-.4.2-.7.4-1 .7-.3.3-.5.7-.6 1.1-.2.5-.2 1-.2 1.6v3.5h-2.1v-9.1zM312.4 105.5c-.7 0-1.3-.1-2-.4-.7-.2-1.3-.6-1.9-1l.9-1.4c.5.4 1 .7 1.5.8.5.2 1 .3 1.5.3s.8-.1 1.1-.3c.2-.2.4-.4.4-.7 0-.2-.1-.3-.2-.5s-.3-.2-.5-.3c-.2-.1-.4-.2-.7-.3-.2-.1-.5-.2-.8-.2-.3-.1-.7-.2-1-.3-.3-.1-.6-.3-.9-.5-.3-.2-.5-.5-.7-.8-.2-.3-.3-.7-.3-1.1 0-.4.1-.8.3-1.2.2-.3.4-.6.7-.9.3-.2.6-.4 1-.6.4-.1.8-.2 1.3-.2.6 0 1.2.1 1.8.3.6.2 1.1.4 1.6.8l-.8 1.5c-.4-.3-.9-.5-1.3-.6-.5-.2-.9-.2-1.3-.2s-.7.1-.9.3c-.2.2-.3.4-.3.7 0 .2.1.3.2.4s.3.2.5.3c.2.1.4.2.7.3.2.1.5.2.8.3s.7.2 1 .4c.3.1.6.3.9.5.3.2.5.4.7.7.2.3.3.6.3 1.1 0 .5-.1.9-.3 1.3s-.4.7-.7.9c-.3.2-.7.4-1.1.5-.5.1-1 .1-1.5.1zM317.3 92.9h2.3v2h-2.3v-2zm.1 3.4h2.1v9.2h-2.1v-9.2zM324.1 100.8l-3.3-4.5h2.3l2.1 3 2.1-3h2.2l-3.3 4.5 3.4 4.7h-2.1l-2.3-3.2-2.2 3.2h-2.2l3.3-4.7zM339.6 108.2c-1.5 0-2.9-.4-4.1-1.1l.8-1.6c.5.3 1 .5 1.5.7.5.2 1.1.3 1.7.3.9 0 1.7-.2 2.2-.7.5-.5.7-1.2.7-2.1v-.7c-.4.5-.8.9-1.3 1.2-.5.3-1.1.5-1.9.5-.5 0-1.1-.1-1.6-.3-.5-.2-.9-.5-1.3-.8-.4-.4-.7-.8-.9-1.3-.2-.5-.3-1.1-.3-1.8s.1-1.3.3-1.8c.2-.5.5-1 .9-1.4.4-.4.8-.6 1.3-.8.5-.2 1-.3 1.6-.3.8 0 1.4.2 1.9.5s.9.7 1.3 1.1v-1.4h2.1v7.3c0 1.5-.4 2.7-1.2 3.5-.4.4-.9.7-1.6.9-.6 0-1.3.1-2.1.1zm.1-5.3c.4 0 .7-.1 1-.2.3-.1.6-.3.9-.5.2-.2.4-.5.6-.8.1-.3.2-.6.2-1s-.1-.7-.2-1-.3-.6-.6-.8c-.3-.2-.5-.4-.9-.5-.3-.1-.7-.2-1-.2-.4 0-.7.1-1 .2-.3.1-.6.3-.8.5-.2.2-.4.5-.6.8-.1.3-.2.7-.2 1 0 .4.1.7.2 1s.3.6.6.8c.2.2.5.4.8.5.3.2.7.2 1 .2zM350.6 105.6c-.7 0-1.3-.1-1.9-.3-.6-.2-1.1-.6-1.5-1-.4-.4-.8-.9-1-1.5-.2-.6-.4-1.2-.4-1.9s.1-1.3.3-1.9c.2-.6.5-1.1.9-1.5.4-.4.9-.8 1.4-1 .5-.2 1.1-.4 1.8-.4s1.4.1 1.9.4c.6.3 1 .6 1.4 1.1.4.5.6 1 .8 1.6.2.6.3 1.2.3 1.9v.6h-6.8c.1.8.4 1.3.9 1.7.5.4 1.1.6 1.7.6.5 0 1-.1 1.4-.3s.8-.5 1.1-.8l1.2 1.1c-.4.5-1 .9-1.6 1.3-.3.1-1 .3-1.9.3zm2.1-5.4c0-.3-.1-.7-.2-.9-.1-.3-.3-.6-.5-.8s-.4-.4-.7-.5c-.3-.1-.6-.2-.9-.2-.6 0-1.2.2-1.6.7-.4.4-.7 1-.8 1.7h4.7zM356.2 96.3h2.1v1.4c.2-.2.3-.4.5-.6.2-.2.4-.4.6-.5.2-.2.5-.3.8-.4.3-.1.6-.1 1-.1 1 0 1.8.3 2.4 1 .6.6.9 1.5.9 2.6v5.8h-2.1v-5.2c0-.7-.2-1.3-.5-1.7-.3-.4-.8-.6-1.4-.6-.6 0-1.1.2-1.5.6s-.6 1-.6 1.7v5.2h-2.1l-.1-9.2zM370.6 105.6c-.7 0-1.3-.1-1.9-.3s-1.1-.6-1.5-1c-.4-.4-.8-.9-1-1.5-.2-.6-.4-1.2-.4-1.9s.1-1.3.3-1.9c.2-.6.5-1.1.9-1.5s.9-.8 1.4-1c.5-.2 1.1-.4 1.8-.4s1.4.1 1.9.4c.6.3 1 .6 1.4 1.1.4.5.6 1 .8 1.6.2.6.3 1.2.3 1.9v.6h-6.8c.1.8.4 1.3.9 1.7.5.4 1.1.6 1.7.6.5 0 1-.1 1.4-.3s.8-.5 1.1-.8l1.2 1.1c-.4.5-1 .9-1.6 1.3-.3.1-1 .3-1.9.3zm2.1-5.4c0-.3-.1-.7-.2-.9-.1-.3-.3-.6-.5-.8-.2-.2-.4-.4-.7-.5-.3-.1-.6-.2-.9-.2-.6 0-1.2.2-1.6.7-.4.4-.7 1-.8 1.7h4.7zM376.2 96.3h2.1v2.1c.3-.7.7-1.3 1.2-1.7.5-.4 1.2-.6 2-.6v2.2h-.1c-.5 0-.9.1-1.3.2-.4.2-.7.4-1 .7-.3.3-.5.7-.6 1.1-.2.5-.2 1-.2 1.6v3.5h-2.1v-9.1zM388.3 105.4v-1.1c-.3.4-.7.7-1.2.9-.5.3-1.1.4-1.8.4-.4 0-.9-.1-1.3-.2s-.7-.3-1-.5c-.3-.2-.5-.5-.7-.9-.2-.4-.3-.8-.3-1.2 0-.5.1-1 .3-1.3.2-.4.4-.7.8-.9.3-.2.7-.4 1.2-.6.5-.1 1-.2 1.5-.2.6 0 1 0 1.4.1.4.1.8.2 1.1.3v-.2c0-.6-.2-1.1-.6-1.5-.4-.3-.9-.5-1.7-.5-.5 0-1 .1-1.4.2-.4.1-.8.2-1.2.4l-.6-1.7c.5-.2 1-.4 1.6-.6.5-.1 1.2-.2 1.9-.2 1.4 0 2.4.3 3 1 .7.7 1 1.6 1 2.9v5.4h-2zm.1-3.8l-.9-.3c-.4-.1-.8-.1-1.2-.1-.7 0-1.2.1-1.5.4-.4.3-.6.6-.6 1s.2.8.5 1c.3.2.8.3 1.3.3.3 0 .7 0 1-.1s.6-.2.8-.4.4-.4.5-.6c.1-.2.2-.5.2-.8l-.1-.4zM395.3 105.5c-.4 0-.7 0-1.1-.1-.3-.1-.6-.2-.9-.5-.2-.2-.4-.5-.6-.8-.1-.3-.2-.8-.2-1.3V98h-1.2v-1.8h1.2v-2.5h2.1v2.5h2.5V98h-2.5v4.5c0 .4.1.7.3.9.2.2.5.3.8.3.5 0 .9-.1 1.3-.3v1.6c-.3.2-.6.3-.9.3 0 .2-.4.2-.8.2zM398.7 92.9h2.3v2h-2.3v-2zm.1 3.4h2.1v9.2h-2.1v-9.2zM407.4 105.6c-.7 0-1.3-.1-1.9-.4-.6-.2-1.1-.6-1.5-1s-.8-.9-1-1.5c-.2-.6-.4-1.2-.4-1.8 0-.7.1-1.3.4-1.9.2-.6.6-1.1 1-1.5s1-.8 1.5-1c.6-.3 1.2-.4 2-.4s1.4.1 2 .4c.6.3 1.1.6 1.5 1s.8.9 1 1.5.4 1.2.4 1.9c0 .6-.1 1.3-.4 1.8-.3.6-.6 1.1-1 1.5s-1 .8-1.6 1c-.6.2-1.3.4-2 .4zm.1-1.8c.4 0 .8-.1 1.2-.2l.9-.6.6-.9c.1-.4.2-.7.2-1.1 0-.4-.1-.8-.2-1.1-.1-.4-.3-.7-.6-.9-.2-.3-.5-.5-.9-.6-.3-.2-.7-.2-1.1-.2s-.8.1-1.1.2l-.9.6-.6.9c-.1.4-.2.7-.2 1.1 0 .4.1.8.2 1.1.1.4.3.7.6.9.2.3.5.5.9.6.2.2.6.2 1 .2zM413.8 96.3h2.1v1.4c.2-.2.3-.4.5-.6.2-.2.4-.4.6-.5.2-.2.5-.3.8-.4.3-.1.6-.1 1-.1 1 0 1.8.3 2.4 1 .6.6.9 1.5.9 2.6v5.8H420v-5.2c0-.7-.2-1.3-.5-1.7-.3-.4-.8-.6-1.4-.6-.6 0-1.1.2-1.5.6s-.6 1-.6 1.7v5.2h-2.1l-.1-9.2zM427 105.5c-.7 0-1.3-.1-2-.4-.7-.2-1.3-.6-1.9-1l.9-1.4c.5.4 1 .7 1.5.8.5.2 1 .3 1.5.3s.8-.1 1.1-.3c.2-.2.4-.4.4-.7 0-.2-.1-.3-.2-.5-.1-.1-.3-.2-.5-.3-.2-.1-.4-.2-.7-.3-.3-.1-.5-.2-.8-.2-.3-.1-.7-.2-1-.3-.3-.1-.6-.3-.9-.5-.3-.2-.5-.5-.7-.8-.2-.3-.3-.7-.3-1.1 0-.4.1-.8.3-1.2.2-.3.4-.6.7-.9.3-.2.6-.4 1-.6.4-.1.8-.2 1.3-.2.6 0 1.2.1 1.8.3s1.1.4 1.6.8l-.8 1.5c-.4-.3-.9-.5-1.3-.6-.5-.2-.9-.2-1.3-.2s-.7.1-.9.3c-.2.2-.3.4-.3.7 0 .2.1.3.2.4s.3.2.5.3c.2.1.4.2.7.3.2.1.5.2.8.3s.7.2 1 .4c.3.1.6.3.9.5.3.2.5.4.7.7.2.3.3.6.3 1.1 0 .5-.1.9-.3 1.3-.2.4-.4.7-.7.9-.3.2-.7.4-1.1.5-.5.1-1 .1-1.5.1z"/></g></svg>