<?xml version="1.0" encoding="UTF-8"?><svg id="Layer_1" xmlns="http://www.w3.org/2000/svg" viewBox="0 0 260.13 130.59"><defs><style>.cls-1{fill:#792cff;}.cls-1,.cls-2,.cls-3,.cls-4,.cls-5,.cls-6,.cls-7,.cls-8,.cls-9,.cls-10,.cls-11,.cls-12{stroke-width:0px;}.cls-2{fill:#4760ff;}.cls-3{fill:#231f20;}.cls-4{fill:#dd24d7;}.cls-5{fill:#cce826;}.cls-6{fill:#9124d1;}.cls-7{fill:#ff3087;}.cls-8{fill:#ff6900;}.cls-9{fill:#ffe826;}.cls-10{fill:#ff1b51;}.cls-11{fill:#00c16e;}.cls-12{fill:#003cff;}</style></defs><rect class="cls-11" x="57.28" y="110.65" width="7.12" height="19.94"/><rect class="cls-6" x="155.07" y="110.65" width="7.12" height="19.94"/><rect class="cls-10" x="227.41" y="110.65" width="7.37" height="19.94"/><rect class="cls-5" x="23.55" y="110.65" width="27.47" height="19.94"/><rect class="cls-7" x="192.71" y="110.65" width="28.42" height="19.94"/><rect class="cls-2" x="94.21" y="110.65" width="17.3" height="19.94"/><rect class="cls-9" y="110.65" width="17.3" height="19.94"/><rect class="cls-8" x="241.06" y="110.65" width="17.3" height="19.94"/><rect class="cls-12" x="70.65" y="110.65" width="17.3" height="19.94"/><rect class="cls-4" x="168.53" y="110.65" width="17.9" height="19.94"/><rect class="cls-1" x="117.78" y="110.65" width="31.01" height="19.94"/><path class="cls-3" d="m38.66,2H0v93.32h38.66c26.26,0,48.26-21.46,48.26-46.79S65.86,2,38.66,2Zm0,73.05h-17.33V22.26h17.33c15.46,0,26.93,10.93,26.93,26.26s-11.06,26.53-26.93,26.53Z"/><path class="cls-3" d="m160.99,31.33c0-19.2-12.93-31.33-32.53-31.33s-34.26,13.6-34.26,36.53h21.33c0-11.6,4.66-16.26,12.8-16.26,6.67,0,11.33,3.87,11.33,10,0,24-45.46,11.6-45.46,51.19v13.86h67.99v-21.34h-44.79c4-18.26,43.59-11.72,43.59-42.65Z"/><path class="cls-3" d="m237.34,62.26c-3.33,8.66-12.4,14.8-23.33,14.8-14.93,0-25.6-11.73-25.6-28.39s10.53-28.39,25.6-28.39c10.93,0,19.73,6,23.19,14.66h22.8C254.13,13.74,236.81.01,214.27.01c-27.06,0-47.19,20.66-47.19,48.79s20.26,48.52,47.19,48.52c22.53,0,39.99-13.73,45.86-35.06h-22.79Z"/></svg>